<?xml version="1.0" encoding="utf-8"?>
<!-- Generator: Fusion 360, Shaper Origin Export Add-In, Version 1.5.0  -->
<svg enable-background="new 0 0 23.6 11.7" height="11.7cm" shaper:fusionaddin="version:1.5.0" version="1.1" viewBox="0 0 23.6 11.7" width="23.6cm" x="0cm" xml:space="preserve" xmlns="http://www.w3.org/2000/svg" xmlns:shaper="http://www.shapertools.com/namespaces/shaper" xmlns:xlink="http://www.w3.org/1999/xlink" y="0cm"><path d="M0,0 L23.6,0 23.6,11.7 0,11.7 0,0z" fill="rgb(0,0,0)" shaper:cutDepth="0" shaper:pathType="exterior" transform="matrix(1,0,0,-1,-0,11.7)" vector-effect="non-scaling-stroke" /><path d="M21.425,6.9 L21.425,4.8 16.175,4.8 16.175,6.9 21.425,6.9z" fill="rgb(255,255,255)" shaper:cutDepth="0" shaper:pathType="interior" stroke="rgb(0,0,0)" transform="matrix(1,0,0,-1,-0,11.7)" vector-effect="non-scaling-stroke" /><path d="M2.175,4.8 L2.175,6.9 7.425,6.9 7.425,4.8 2.175,4.8z" fill="rgb(255,255,255)" shaper:cutDepth="0" shaper:pathType="interior" stroke="rgb(0,0,0)" transform="matrix(1,0,0,-1,-0,11.7)" vector-effect="non-scaling-stroke" /><path d="M2.175,1.8 L2.175,3.9 7.425,3.9 7.425,1.8 2.175,1.8z" fill="rgb(255,255,255)" shaper:cutDepth="0" shaper:pathType="interior" stroke="rgb(0,0,0)" transform="matrix(1,0,0,-1,-0,11.7)" vector-effect="non-scaling-stroke" /><path d="M16.175,9.9 L21.425,9.9 21.425,7.8 16.175,7.8 16.175,9.9z" fill="rgb(255,255,255)" shaper:cutDepth="0" shaper:pathType="interior" stroke="rgb(0,0,0)" transform="matrix(1,0,0,-1,-0,11.7)" vector-effect="non-scaling-stroke" /><path d="M21.425,3.9 L21.425,1.8 16.175,1.8 16.175,3.9 21.425,3.9z" fill="rgb(255,255,255)" shaper:cutDepth="0" shaper:pathType="interior" stroke="rgb(0,0,0)" transform="matrix(1,0,0,-1,-0,11.7)" vector-effect="non-scaling-stroke" /><path d="M2.175,7.8 L2.175,9.9 7.425,9.9 7.425,7.8 2.175,7.8z" fill="rgb(255,255,255)" shaper:cutDepth="0" shaper:pathType="interior" stroke="rgb(0,0,0)" transform="matrix(1,0,0,-1,-0,11.7)" vector-effect="non-scaling-stroke" /><path d="M9.175,1.8 L9.175,3.9 14.425,3.9 14.425,1.8 9.175,1.8z" fill="rgb(255,255,255)" shaper:cutDepth="0" shaper:pathType="interior" stroke="rgb(0,0,0)" transform="matrix(1,0,0,-1,-0,11.7)" vector-effect="non-scaling-stroke" /><path d="M9.175,7.8 L9.175,9.9 14.425,9.9 14.425,7.8 9.175,7.8z" fill="rgb(255,255,255)" shaper:cutDepth="0" shaper:pathType="interior" stroke="rgb(0,0,0)" transform="matrix(1,0,0,-1,-0,11.7)" vector-effect="non-scaling-stroke" /><path d="M14.425,6.9 L14.425,4.8 9.175,4.8 9.175,6.9 14.425,6.9z" fill="rgb(255,255,255)" shaper:cutDepth="0" shaper:pathType="interior" stroke="rgb(0,0,0)" transform="matrix(1,0,0,-1,-0,11.7)" vector-effect="non-scaling-stroke" /></svg>